<svg xmlns="http://www.w3.org/2000/svg" width="25" height="19" viewBox="0 0 25 19">
  <defs>
    <style>
      .cls-1 {
        fill: #000;
        fill-rule: evenodd;
      }
    </style>
  </defs>
  <path id="twitter.svg" class="cls-1" d="M110,616.247a10.742,10.742,0,0,1-2.945.754,4.879,4.879,0,0,0,2.256-2.655,10.681,10.681,0,0,1-3.259,1.166A5.292,5.292,0,0,0,102.309,614a4.971,4.971,0,0,0-5.129,4.8,4.608,4.608,0,0,0,.131,1.093,14.916,14.916,0,0,1-10.572-5.012,4.553,4.553,0,0,0-.7,2.412,4.724,4.724,0,0,0,2.283,3.992,5.389,5.389,0,0,1-2.323-.6v0.06a4.522,4.522,0,0,0,.35,1.739,5.069,5.069,0,0,0,3.764,2.967,5.548,5.548,0,0,1-1.352.168,5.392,5.392,0,0,1-.966-0.088,5.1,5.1,0,0,0,4.792,3.331,10.926,10.926,0,0,1-7.6,1.987A15.267,15.267,0,0,0,92.86,633c8.02,0,12.948-5.278,14.248-10.753a12.547,12.547,0,0,0,.349-2.9c0-.206,0-0.414-0.013-0.62A10.068,10.068,0,0,0,110,616.247Z" transform="translate(-85 -614)"/>
</svg>
