<svg xmlns="http://www.w3.org/2000/svg" width="26" height="19" viewBox="0 0 26 19">
  <defs>
    <style>
      .cls-1 {
        fill: #000;
        fill-rule: evenodd;
      }
    </style>
  </defs>
  <path id="youtube.svg" class="cls-1" d="M110.741,538.106a5.991,5.991,0,0,0-1.032-2.681,3.65,3.65,0,0,0-2.6-1.143c-3.643-.272-9.1-0.272-9.1-0.272H97.992s-5.462,0-9.1.273a3.644,3.644,0,0,0-2.607,1.143,6,6,0,0,0-1.031,2.681,42.193,42.193,0,0,0-.261,4.369v2.048a42.206,42.206,0,0,0,.261,4.371,6,6,0,0,0,1.031,2.68,4.317,4.317,0,0,0,2.87,1.154C91.236,552.935,98,553,98,553s5.464-.01,9.107-0.282a3.643,3.643,0,0,0,2.6-1.144,5.982,5.982,0,0,0,1.032-2.679,42.047,42.047,0,0,0,.262-4.371v-2.048A42.066,42.066,0,0,0,110.741,538.106Zm-8.4,5.123-7.026,3.779v-7.586l3.167,1.717Z" transform="translate(-85 -534)"/>
</svg>
